<svg width="128" height="128" viewBox="0 0 20 20" xmlns="http://www.w3.org/2000/svg"><path fill="#3b3b3b" d="M4.5 6.75a2.25 2.25 0 114.5 0 2.25 2.25 0 01-4.5 0zM6.75 3.5a3.25 3.25 0 100 6.5 3.25 3.25 0 000-6.5zm5.687 11.645c.538.22 1.215.355 2.063.355 1.881 0 2.921-.668 3.469-1.434a2.916 2.916 0 00.521-1.36 1.881 1.881 0 00.01-.137V12.5A1.5 1.5 0 0017 11h-4.63c.24.29.42.629.525 1H17a.5.5 0 01.5.5v.054l-.005.05a1.918 1.918 0 01-.34.88c-.327.459-1.037 1.016-2.655 1.016-.732 0-1.278-.114-1.687-.281-.082.28-.201.596-.376.926zM1.5 13a2 2 0 012-2H10a2 2 0 012 2v.084c0 .01 0 .023-.002.04a3.618 3.618 0 01-.085.588c-.085.368-.254.86-.595 1.354C10.617 16.08 9.263 17 6.75 17c-2.513 0-3.867-.92-4.568-1.934a3.948 3.948 0 01-.67-1.807 2.589 2.589 0 01-.012-.175V13zm1 .06v.018l.007.083a2.948 2.948 0 00.498 1.336C3.492 15.201 4.513 16 6.75 16s3.258-.799 3.745-1.503a2.946 2.946 0 00.498-1.336.899.899 0 00.006-.083l.001-.017V13a1 1 0 00-1-1H3.5a1 1 0 00-1 1v.06zM13 7.5a1.5 1.5 0 113 0 1.5 1.5 0 01-3 0zM14.5 5a2.5 2.5 0 100 5 2.5 2.5 0 000-5z"/></svg>