<svg width="128" height="128" viewBox="0 0 36 36" xmlns="http://www.w3.org/2000/svg"><path fill="#3b3b3b" d="M23 26a1 1 0 01-1 1H8c-.22 0-.43.2-.61.33L4 30V14a1 1 0 011-1h3.86v-2H5a3 3 0 00-3 3v18a1 1 0 00.56.89 1 1 0 001-.1L8.71 29h13.44A2.77 2.77 0 0025 26.13V25h-2z" class="clr-i-outline--badged clr-i-outline-path-1--badged"/><path fill="#3b3b3b" d="M32 13.22v9.72l-3.5-2.73a1 1 0 00-.61-.21H14a1 1 0 01-1-1V7a1 1 0 011-1h8.5a7.49 7.49 0 01.28-2H14a3 3 0 00-3 3v12a3 3 0 003 3h13.55l4.78 3.71a1 1 0 001 .11 1 1 0 00.57-.9V12.37a7.45 7.45 0 01-1.9.85z" class="clr-i-outline--badged clr-i-outline-path-2--badged"/><circle cx="30" cy="6" r="5" fill="#3b3b3b" class="clr-i-outline--badged clr-i-outline-path-3--badged clr-i-badge"/><path fill="none" d="M0 0h36v36H0z"/></svg>